/* XPM */
static char *player_dead[] = {
/* columns rows colors chars-per-pixel */
"32 32 9 1 ",
"  c #32313B",
". c #444774",
"X c #4C60AA",
"o c #CA60AE",
"O c #5FA1E7",
"+ c #5FC9E7",
"@ c #85DAEB",
"Y c black"
"# c white",
/* pixels */
"................................",
"...............@#...............",
"..............@@##..............",
"..............@@##..............",
"..............@@##..............",
"..............oooo..............",
"....#.......OOOOO#OO............",
"...@##.....OOOOOOO##O...........",
"...@##....OOOOOOOO##OO..........",
"..@@###..OOOOOOOOOOOOOO.........",
"..@@###.OOOOOOOOOOOOOOOO........",
"..@@###.OOOOOOOOOOOOOOOO........",
".@@@####OOOOOOOOOOOOOOOO........",
".@@@####OOO#+OOOOO#+OOOO#.......",
".@@@####OOO++OOOOO++OOOO+.......",
".@@@####OOOOOOOOOOOOOOOOO.......",
".@@@####OOOOOOOOOOOOOOOOO.......",
".@@@####XXXXXXXX     XXXX.......",
".@@@####OOOOO           X.......",
".@@@####OOOYY###YY##YY###YY.....",
".@@@####OO #YY#YY####YY#YY......",
".@@@####OO###YYY ## ##YYY##.....",
"..@@###OOO##YY#YY# ##YY#YY#.....",
".oooooooXX#YY###YY #YY###YY.....",
"...###OOOOYY#####YYYY#####YY....",
"..#####OOOO                 ....",
"..#####OOOOO            XO......",
"..#####OOOOOOO         XOX .....",
"...###OOOOOOOOOO      XOO  .....",
"...ooo..   X............   .....",
"...ooo..  X.............  ......",
"................................"
